<svg width="152" height="44" viewBox="0 0 152 44" fill="none" xmlns="http://www.w3.org/2000/svg">
<path fill-rule="evenodd" clip-rule="evenodd" d="M131.27 20.5986V10.3667C131.27 4.71509 126.689 0.133545 121.037 0.133545C115.386 0.133545 110.805 4.71509 110.805 10.3667V20.5986V37.8333C110.805 39.6174 112.251 41.0647 114.036 41.0647H131.27H141.503C147.154 41.0647 151.736 36.4824 151.736 30.8318C151.736 25.1802 147.154 20.5986 141.503 20.5986H131.27Z" fill="rgba(252,194,202,0.3)"/>
<path fill-rule="evenodd" clip-rule="evenodd" d="M78.5592 4.60327C77.2973 3.34154 75.2512 3.34154 73.9893 4.60327L61.8031 16.79L54.5673 24.0249C50.5713 28.0215 50.5713 34.5002 54.5673 38.4966C58.5634 42.4924 65.0425 42.4924 69.0384 38.4966L76.2743 31.261L83.51 38.4966C87.506 42.4924 93.985 42.4924 97.9811 38.4966C101.977 34.5002 101.977 28.0215 97.9811 24.0249L90.7454 16.79L78.5592 4.60327Z" fill="rgba(252,194,202,0.3)"/>
<path fill-rule="evenodd" clip-rule="evenodd" d="M20.702 12.3831V22.616H10.4692C4.81782 22.616 0.23645 27.1975 0.23645 32.8489C0.23645 38.5 4.81782 43.0815 10.4692 43.0815H20.702H37.936C39.7207 43.0815 41.1671 41.635 41.1671 39.8501V22.616V12.3831C41.1671 6.73168 36.5858 2.15088 30.9344 2.15088C25.2834 2.15088 20.702 6.73168 20.702 12.3831Z" fill="rgba(252,194,202,0.3)"/>
</svg>
