<svg width="83" height="131" viewBox="0 0 83 131" fill="none" xmlns="http://www.w3.org/2000/svg">
<path fill-rule="evenodd" clip-rule="evenodd" d="M45.5027 68.9645C43.3926 66.8545 39.9726 66.8545 37.8636 68.9645L17.4937 89.3336L5.39869 101.429C-1.28033 108.109 -1.28033 118.937 5.39869 125.618C12.0787 132.298 22.9087 132.298 29.5887 125.618L41.6827 113.523L53.7776 125.618C60.4566 132.298 71.2867 132.298 77.9666 125.618C84.6457 118.937 84.6457 108.109 77.9666 101.429L65.8717 89.3336L45.5027 68.9645Z" fill="#FFC9D1"/>
<path fill-rule="evenodd" clip-rule="evenodd" d="M29.5887 58.2355L41.6827 46.1405L53.7767 58.2355C60.4566 64.9155 71.2867 64.9155 77.9666 58.2355C84.6457 51.5555 84.6457 40.7265 77.9666 34.0465L65.8717 21.9516L45.5027 1.58253C43.3926 -0.527467 39.9726 -0.527467 37.8636 1.58253L17.4937 21.9516L5.39869 34.0465C-1.28033 40.7265 -1.28033 51.5555 5.39869 58.2355C12.0787 64.9155 22.9087 64.9155 29.5887 58.2355Z" fill="#FFC9D1"/>
</svg>
