<svg xmlns="http://www.w3.org/2000/svg" xmlns:xlink="http://www.w3.org/1999/xlink" width="1080" zoomAndPan="magnify" viewBox="0 0 810 809.999993" height="1080" preserveAspectRatio="xMidYMid meet" version="1.0"><path fill="#4c00da" d="M 564.445312 87.464844 C 584.101562 102.734375 598.824219 120.871094 607.398438 143.957031 C 611.230469 154.273438 617.667969 163.683594 621.023438 174.117188 C 628.730469 198.027344 625.738281 221.777344 616.179688 244.574219 C 597.722656 288.558594 568.265625 324.511719 533.179688 356.136719 C 518.195312 369.640625 502.636719 382.507812 487.625 395.980469 C 463.628906 417.53125 457.355469 444.265625 464.585938 475.152344 C 468.417969 491.535156 471.671875 508.078125 474.375 524.695312 C 478.398438 549.414062 465.089844 564.640625 440.273438 565.785156 C 416.453125 566.886719 397.453125 556.144531 380.097656 541.945312 C 350.390625 517.644531 339.039062 485.675781 341.828125 447.738281 C 344.894531 406.128906 365.78125 372.359375 388.382812 339.375 C 412.449219 304.261719 437.976562 270.121094 461.144531 234.429688 C 474.796875 213.414062 485.179688 190.257812 496.820312 167.953125 C 498.976562 163.828125 500.320312 159.226562 501.667969 154.738281 C 506.382812 139.164062 500.40625 127.585938 484.976562 122.027344 C 471.308594 117.105469 457.019531 117.238281 443.195312 119.394531 C 398.132812 126.429688 365.113281 152.304688 339.398438 188.664062 C 337.578125 191.253906 336.074219 195.566406 336.914062 198.316406 C 346.386719 229.4375 343.578125 260.613281 338.476562 291.917969 C 337.144531 300.050781 336.695312 308.332031 336.015625 316.550781 C 335.265625 325.613281 335.421875 334.816406 333.859375 343.734375 C 331.75 355.730469 324.445312 364.113281 312.832031 368.425781 C 306.65625 370.726562 300.65625 374.140625 294.292969 375.054688 C 287.726562 375.996094 280.003906 376.296875 274.234375 373.679688 C 261.984375 368.105469 249.894531 361.519531 239.132812 353.472656 C 199.101562 323.558594 181.023438 282.554688 183.511719 233.183594 C 184.148438 220.738281 189.585938 207.898438 195.300781 196.492188 C 209.167969 168.835938 230.6875 147.488281 255.402344 129.234375 C 304.417969 93.039062 358.808594 68.808594 418.625 57.78125 C 459.742188 50.195312 500.625 50.644531 538.890625 70.921875 C 547.683594 75.582031 555.667969 81.660156 564.445312 87.464844 Z M 397.988281 395.113281 C 394.734375 401.191406 391.433594 407.242188 388.28125 413.363281 C 387.835938 414.21875 388.050781 415.40625 387.949219 416.449219 C 388.558594 416.027344 389.46875 415.753906 389.730469 415.175781 C 392.808594 408.269531 395.804688 401.335938 399.230469 393.984375 C 399.257812 393.621094 399.289062 393.277344 399.304688 392.914062 C 399.171875 393.433594 399.042969 393.957031 397.988281 395.113281 Z M 552.921875 178.417969 C 547.339844 197.160156 541.726562 215.886719 536.203125 234.644531 C 535.769531 236.121094 535.78125 237.742188 535.59375 239.292969 C 537.011719 238.292969 538.703125 237.527344 539.804688 236.238281 C 542.667969 232.867188 545.386719 229.363281 547.929688 225.757812 C 565.371094 201.082031 580.339844 175.566406 578.171875 143.519531 C 577.578125 134.777344 574.84375 127.542969 567.5 123.1875 C 557.332031 117.152344 546.601562 112.027344 536.070312 106.597656 C 535.203125 106.152344 534.019531 106.308594 532.976562 106.195312 C 533.394531 107.089844 533.671875 108.089844 534.25 108.855469 C 536.722656 112.171875 539.441406 115.328125 541.800781 118.726562 C 554.046875 136.429688 554.410156 156.519531 552.921875 178.417969 Z M 405.566406 530.050781 C 398.78125 526.476562 392 522.886719 385.1875 519.339844 C 384.046875 518.746094 382.800781 518.328125 381.601562 517.835938 C 381.714844 519.078125 381.515625 520.453125 381.976562 521.539062 C 386.996094 533.058594 394.789062 541.136719 407.835938 543.511719 C 427.199219 547.027344 442.300781 537.777344 444.699219 519.960938 C 445.320312 515.386719 445.207031 510.480469 444.238281 505.996094 C 439.722656 485.296875 434.777344 464.703125 429.992188 444.0625 C 429.816406 443.296875 429.671875 442.515625 429.527344 441.746094 C 429.398438 442.558594 429.125 443.367188 429.152344 444.179688 C 429.441406 452.992188 430.324219 461.820312 429.992188 470.605469 C 429.441406 485.125 429.210938 499.785156 426.738281 514.027344 C 425.058594 523.636719 418.21875 530.714844 405.566406 530.050781 Z M 503.53125 102.199219 C 495.882812 102.15625 488.214844 102.082031 480.566406 102.082031 C 479.855469 102.082031 479.148438 102.472656 478.441406 102.675781 C 478.960938 103.226562 479.394531 103.894531 479.988281 104.328125 C 493.394531 113.878906 506.800781 123.433594 520.292969 132.855469 C 520.800781 133.214844 522.984375 132.449219 523.054688 132 C 524.675781 121.925781 514.769531 105.949219 503.53125 102.199219 Z M 502.375 77.277344 C 501.8125 77.695312 501.246094 78.101562 500.667969 78.519531 C 500.941406 78.59375 501.21875 78.636719 501.464844 78.738281 C 510.285156 81.921875 519.296875 84.671875 527.871094 88.40625 C 537.71875 92.703125 547.179688 97.902344 556.867188 102.617188 C 557.9375 103.140625 559.355469 102.980469 560.613281 103.140625 C 560.152344 101.96875 560.019531 100.390625 559.167969 99.695312 C 554.265625 95.714844 549.738281 90.375 544.082031 88.40625 C 530.894531 83.804688 517.125 80.878906 502.375 77.277344 Z M 261.839844 289.515625 C 261.519531 281.28125 261.21875 273.042969 260.886719 264.808594 C 260.839844 263.808594 260.667969 262.824219 260.550781 261.84375 C 260.207031 262.8125 259.597656 263.753906 259.527344 264.75 C 258.46875 279.238281 257.339844 293.710938 256.648438 308.214844 C 256.546875 310.253906 259.0625 314.324219 259.757812 314.191406 C 263.675781 313.453125 265.628906 311.082031 264.457031 306.433594 C 263.199219 301.414062 262.867188 296.160156 261.839844 289.515625 Z M 275.59375 348.785156 C 277.632812 348.058594 280.0625 347.800781 281.625 346.496094 C 283.34375 345.078125 284.257812 342.691406 285.527344 340.722656 C 283.15625 339.898438 280.84375 338.636719 278.398438 338.335938 C 275.261719 337.945312 271.992188 338.101562 268.824219 338.433594 C 266.769531 338.652344 264.789062 339.609375 262.765625 340.230469 C 263.894531 343.199219 264.328125 346.917969 266.410156 348.871094 C 267.871094 350.261719 271.601562 349.1875 275.59375 348.785156 Z M 231.976562 324.875 C 229.472656 317.796875 227.027344 310.691406 224.410156 303.65625 C 223.992188 302.511719 222.75 301.6875 221.878906 300.71875 C 221.835938 301.976562 221.34375 303.4375 221.808594 304.480469 C 224.800781 311.183594 227.984375 317.78125 231.976562 324.875 Z M 275.851562 190.90625 C 275.40625 189.953125 274.957031 189.011719 274.523438 188.054688 C 273.84375 189.777344 273.164062 191.5 272.484375 193.222656 C 273.582031 192.789062 274.667969 192.355469 275.851562 190.90625 Z M 275.851562 190.90625 " fill-opacity="1" fill-rule="nonzero"/><path fill="#4c00da" d="M 399.5625 745.980469 C 374.382812 732.492188 352.863281 716.121094 342.003906 689.085938 C 324.792969 646.273438 352.183594 600.621094 398.132812 595.339844 C 439.074219 590.636719 471.207031 607.382812 490.890625 641.496094 C 504.398438 664.898438 511.007812 692.746094 495.925781 719.914062 C 481.332031 746.183594 446.941406 760.105469 416.554688 751.914062 C 410.972656 750.410156 405.59375 748.164062 399.5625 745.980469 Z M 463.773438 628.847656 L 464.066406 628.976562 C 464.066406 628.976562 463.542969 628.601562 463.269531 627.484375 C 458.019531 624.5625 452.796875 621.582031 447.476562 618.773438 C 446.898438 618.46875 445.742188 619.234375 444.859375 619.511719 C 445.410156 620.058594 445.855469 620.8125 446.523438 621.101562 C 452.207031 623.636719 457.917969 626.066406 463.773438 628.847656 Z M 399.128906 693.714844 C 396.4375 693.5 393.648438 686.160156 391.289062 692.832031 C 386.519531 706.367188 398.390625 720.085938 412.433594 717.871094 C 417.019531 717.148438 421.503906 715.757812 425.984375 714.5 C 427.199219 714.152344 428.226562 713.140625 429.339844 712.445312 C 428.257812 711.691406 427.214844 710.867188 426.085938 710.1875 C 417.453125 704.917969 408.777344 699.679688 399.128906 693.714844 Z M 460.808594 662.773438 C 462.472656 666.042969 464.121094 669.3125 465.785156 672.585938 C 467.085938 668.734375 468.824219 664.957031 469.558594 660.992188 C 470.039062 658.429688 469.558594 655.449219 468.707031 652.929688 C 465.613281 643.914062 451.394531 637.339844 441.910156 640.292969 C 441.386719 640.453125 440.882812 640.640625 440.359375 640.800781 C 441.257812 641.164062 442.152344 641.496094 443.035156 641.871094 C 448.90625 644.390625 455.082031 646.402344 460.566406 649.601562 C 464.890625 652.117188 468.621094 656.113281 460.1875 658.921875 C 459.957031 658.992188 460.261719 660.761719 460.808594 662.773438 Z M 460.808594 662.773438 " fill-opacity="1" fill-rule="nonzero"/></svg>